<svg width="100" height="100" viewBox="0 0 100 100" fill="none" xmlns="http://www.w3.org/2000/svg">
<rect width="100" height="100" fill="white"/>
<path d="M38.1562 27.75H45.5312L62.9062 73H54.125L38.1562 27.75ZM36.7188 27.75H43.125L42.9062 36.6562H38.1562L44.0938 27.75L28.125 73H19.3438L36.7188 27.75ZM29.5938 54.5H52.625V62H29.5938V54.5Z" fill="black"/>
<path d="M73.0312 73.625C72.0521 73.625 71.1771 73.4167 70.4062 73C69.6562 72.5625 69.0625 71.9688 68.625 71.2188C68.1875 70.4479 67.9688 69.5938 67.9688 68.6562C67.9688 67.6979 68.1875 66.8438 68.625 66.0938C69.0625 65.3438 69.6562 64.75 70.4062 64.3125C71.1771 63.875 72.0521 63.6562 73.0312 63.6562C73.9896 63.6562 74.8542 63.875 75.625 64.3125C76.3958 64.75 77 65.3438 77.4375 66.0938C77.875 66.8438 78.0938 67.6979 78.0938 68.6562C78.0938 69.5938 77.875 70.4479 77.4375 71.2188C77 71.9688 76.3958 72.5625 75.625 73C74.8542 73.4167 73.9896 73.625 73.0312 73.625Z" fill="#ED8B00"/>
</svg>
